<?xml version="1.0" standalone="no"?>
<!DOCTYPE svg PUBLIC "-//W3C//DTD SVG 20010904//EN"
 "http://www.w3.org/TR/2001/REC-SVG-20010904/DTD/svg10.dtd">
<svg version="1.0" xmlns="http://www.w3.org/2000/svg"
 width="960.000000pt" height="960.000000pt" viewBox="0 0 960.000000 960.000000"
 preserveAspectRatio="xMidYMid meet">
<metadata>
Created by potrace 1.16, written by Peter Selinger 2001-2019
</metadata>
<g transform="translate(0.000000,960.000000) scale(0.100000,-0.100000)"
fill="#000000" stroke="none">
<path d="M2397 9593 c1322 -2 3484 -2 4805 0 1322 1 241 2 -2402 2 -2643 0
-3724 -1 -2403 -2z"/>
<path d="M1335 5880 c-22 -10 -96 -63 -165 -118 l-125 -98 -3 -409 c-3 -474
-1 -485 75 -566 66 -71 153 -111 251 -117 54 -3 88 0 112 10 19 9 95 61 168
118 l132 102 0 217 c0 120 -2 220 -5 223 -3 3 -46 -21 -95 -54 l-90 -61 0
-144 c0 -162 -6 -184 -66 -230 -78 -59 -198 -14 -253 95 -20 40 -21 56 -21
446 l0 405 38 41 c31 32 46 40 75 40 73 0 154 -49 195 -119 24 -41 28 -59 32
-168 l5 -123 93 61 94 60 -4 98 c-3 88 -6 102 -33 147 -80 128 -290 202 -410
144z"/>
<path d="M2225 5888 c-29 -10 -282 -200 -297 -222 -4 -6 -8 -202 -8 -437 l0
-425 26 -52 c53 -107 165 -172 304 -179 102 -5 100 -6 274 127 l125 95 1 443
c0 417 -1 445 -19 480 -27 52 -102 119 -167 149 -63 29 -189 40 -239 21z m93
-124 c46 -19 98 -68 123 -116 18 -35 19 -63 19 -436 l0 -398 -42 -41 c-50 -47
-71 -54 -131 -41 -60 12 -119 64 -147 130 l-23 53 7 395 7 395 39 38 c45 42
84 48 148 21z"/>
<path d="M3995 5812 l-90 -87 113 -3 112 -3 0 -484 0 -484 -22 -6 c-22 -7
-188 -163 -188 -177 0 -4 102 -7 226 -8 l226 0 84 82 c46 45 84 87 84 94 0 9
-27 13 -102 12 l-103 0 -3 486 c-2 460 -1 486 16 486 9 0 58 41 107 90 l90 90
-230 0 -230 0 -90 -88z"/>
<path d="M5798 5817 c-49 -46 -88 -86 -88 -90 0 -4 50 -7 110 -7 l110 0 0
-485 c0 -441 -1 -485 -16 -485 -17 0 -194 -166 -194 -182 0 -4 102 -8 226 -8
l226 0 89 87 c48 47 86 90 83 95 -3 4 -52 8 -110 8 l-104 0 0 484 c0 472 1
485 19 488 17 2 191 162 191 174 0 2 -102 4 -227 4 l-228 -1 -87 -82z"/>
<path d="M6437 5812 c-48 -48 -87 -91 -87 -94 0 -4 62 -9 138 -10 l137 -3 5
-563 5 -563 92 91 93 91 2 472 3 472 77 5 78 5 85 85 c47 46 85 88 85 92 0 5
-141 8 -313 8 l-312 0 -88 -88z"/>
<path d="M7298 5827 l-97 -72 2 -595 2 -595 307 0 308 0 85 85 c47 46 85 88
85 92 0 5 -135 8 -300 8 l-300 0 2 208 3 207 152 5 153 5 80 80 c44 44 80 83
80 87 0 4 -105 9 -232 10 l-233 3 0 180 0 180 217 5 218 5 87 88 88 87 -305 0
-305 -1 -97 -72z"/>
<path d="M8215 5839 c-49 -34 -93 -67 -97 -73 -4 -6 -8 -278 -8 -603 l0 -593
24 -6 c40 -10 240 14 299 36 127 48 254 162 320 288 80 154 117 352 97 524
-19 169 -69 287 -158 378 -76 77 -140 101 -282 107 l-105 5 -90 -63z m275
-137 c128 -64 190 -423 120 -697 -43 -171 -141 -314 -236 -345 -66 -22 -63
-54 -57 517 2 285 6 524 8 531 7 19 123 16 165 -6z"/>
<path d="M3325 5849 c-33 -23 -75 -52 -93 -66 l-32 -24 2 -597 3 -597 253 -3
c139 -1 259 1 267 5 15 9 190 178 200 193 4 7 -2 7 -20 0 -15 -6 -131 -10
-266 -10 l-239 0 0 570 c0 314 -3 570 -7 570 -5 0 -35 -19 -68 -41z"/>
<path d="M4787 5830 l-87 -61 0 -596 c0 -520 2 -594 15 -589 21 8 161 104 174
119 7 9 12 98 13 253 2 131 6 232 10 224 5 -12 98 -319 164 -539 8 -28 18 -51
22 -51 4 0 21 35 39 78 18 42 53 127 79 187 25 61 68 164 96 230 27 66 54 124
59 130 12 12 6 -567 -6 -609 -8 -28 -2 -26 101 46 l109 76 3 581 c1 320 0 581
-4 581 -3 0 -46 -28 -95 -61 -99 -68 -103 -73 -168 -235 -110 -272 -177 -426
-185 -428 -6 0 -18 26 -29 59 -10 33 -60 195 -111 360 -52 164 -98 301 -103
302 -5 2 -48 -24 -96 -57z"/>
<path d="M3796 4348 c-31 -35 -56 -66 -56 -69 0 -4 17 -9 38 -13 46 -7 96 -37
118 -71 14 -21 16 -52 15 -200 -2 -164 0 -178 19 -205 27 -38 40 -38 74 0 l27
31 -21 26 c-18 24 -20 40 -20 199 l0 174 -36 40 c-19 21 -44 42 -55 45 -58 19
2 25 239 26 l257 1 34 39 33 39 -305 0 -305 0 -56 -62z"/>
<path d="M5692 4317 c-12 -13 -22 -29 -22 -36 0 -11 -3 -11 -16 0 -13 10 -20
10 -44 -4 l-29 -18 -24 36 -25 36 -21 -27 c-26 -33 -27 -55 -2 -85 l18 -23 28
22 c26 21 28 21 56 5 22 -13 34 -15 47 -7 29 19 81 94 76 109 -8 21 -17 19
-42 -8z"/>
<path d="M4674 4308 c-36 -28 -74 -67 -74 -77 0 -31 62 -41 92 -14 18 16 18
17 -9 39 -25 20 -26 23 -10 29 23 9 73 -12 114 -48 32 -29 34 -29 53 -12 31
28 24 48 -29 78 -59 33 -99 34 -137 5z"/>
<path d="M5075 4318 c-32 -17 -95 -81 -95 -95 0 -8 12 -18 26 -23 27 -10 51
-3 72 23 9 11 7 16 -13 25 -28 13 -33 30 -11 38 19 7 85 -27 115 -60 l25 -26
23 22 c13 12 23 27 23 35 0 16 -98 73 -125 73 -11 -1 -29 -6 -40 -12z"/>
<path d="M4140 4143 l-22 -28 78 -3 c69 -3 82 -6 106 -29 l28 -27 0 -148 c0
-81 4 -148 8 -148 5 0 18 10 30 23 21 22 22 33 22 173 l0 150 -33 32 c-32 31
-36 32 -114 32 -77 0 -83 -2 -103 -27z"/>
<path d="M4642 4147 c-12 -13 -22 -26 -22 -30 0 -4 34 -7 75 -7 67 0 79 -3
100 -25 19 -18 25 -35 25 -70 0 -25 -3 -45 -7 -45 -5 1 -20 19 -36 41 -15 22
-35 43 -44 46 -23 9 -139 -116 -145 -157 -8 -51 3 -89 34 -122 l29 -31 26 26
27 26 -27 27 c-50 50 -57 150 -11 168 29 11 134 -146 134 -201 0 -31 10 -29
48 10 l32 33 0 135 0 135 -33 32 c-31 30 -37 32 -108 32 -66 0 -78 -3 -97 -23z"/>
<path d="M4999 4144 l-24 -25 22 -17 c18 -14 23 -29 24 -74 1 -33 -3 -63 -10
-71 -9 -11 -9 -16 1 -20 16 -6 16 -69 0 -75 -14 -4 -27 42 -17 60 4 7 -7 -2
-24 -20 -39 -41 -40 -77 -4 -114 15 -15 32 -28 37 -28 19 0 86 71 86 91 0 10
3 19 8 19 11 0 72 -73 72 -87 0 -23 28 -14 54 18 26 30 26 33 26 195 0 90 -4
164 -8 164 -5 0 -18 -10 -30 -23 -20 -21 -22 -34 -22 -125 0 -102 -7 -119 -32
-84 -7 10 -25 27 -40 36 -25 17 -28 24 -28 78 0 62 -18 111 -45 122 -22 8 -18
9 -46 -20z"/>
<path d="M5538 4133 c-42 -44 -68 -92 -68 -125 0 -28 34 -86 55 -94 11 -5 15
-23 15 -75 0 -38 4 -69 8 -69 5 0 18 10 30 23 17 18 22 35 22 82 0 51 4 63 29
90 37 38 45 66 27 91 -14 19 -15 19 -40 -5 -20 -19 -23 -27 -15 -43 11 -21 6
-48 -10 -48 -21 0 -61 74 -61 112 0 45 12 54 45 32 23 -15 27 -15 50 0 27 18
36 16 73 -17 21 -20 22 -28 22 -169 0 -119 3 -148 14 -148 7 0 21 11 30 25 13
19 16 52 16 164 l0 140 -31 36 c-34 38 -54 43 -85 20 -25 -19 -48 -19 -64 0
-18 21 -22 20 -62 -22z"/>
<path d="M5930 4143 l-22 -28 64 -3 c91 -3 106 -9 128 -45 17 -28 20 -50 20
-164 0 -73 4 -133 8 -133 5 0 16 8 25 18 14 16 17 43 17 171 l0 153 -31 29
c-29 27 -37 29 -109 29 -74 0 -80 -2 -100 -27z"/>
<path d="M5352 4137 c-21 -22 -22 -33 -22 -184 0 -142 2 -162 18 -176 25 -23
37 -21 56 8 15 23 15 28 1 47 -12 18 -15 54 -15 175 0 84 -4 153 -8 153 -5 0
-18 -10 -30 -23z"/>
<path d="M4085 4070 c-21 -41 -19 -52 15 -95 28 -36 30 -43 30 -126 0 -49 4
-89 8 -89 5 0 18 10 30 23 19 20 22 35 22 104 0 45 3 88 6 97 8 21 40 21 48 0
6 -15 8 -15 27 2 25 23 22 67 -6 73 -13 2 -29 -8 -47 -29 -26 -32 -28 -32 -51
-17 -13 8 -32 32 -41 51 -9 20 -19 36 -21 36 -3 0 -11 -13 -20 -30z"/>
<path d="M5886 4078 c-37 -56 -25 -132 24 -158 17 -9 20 -21 20 -79 0 -37 3
-71 7 -74 3 -4 17 3 30 15 19 18 23 32 23 84 0 56 3 66 35 104 39 47 41 57 21
86 -14 19 -15 18 -40 -5 -18 -17 -23 -28 -16 -35 15 -15 12 -56 -3 -56 -22 0
-49 36 -67 91 l-18 52 -16 -25z"/>
</g>
</svg>
